<svg width="680" viewBox="0 0 680 700" xmlns="http://www.w3.org/2000/svg" style="font-family:system-ui,sans-serif;background:#fff">
<defs><marker id="arrow" viewBox="0 0 10 10" refX="8" refY="5" markerWidth="6" markerHeight="6" orient="auto-start-reverse"><path d="M2 1L8 5L2 9" fill="none" stroke="context-stroke" stroke-width="1.5" stroke-linecap="round" stroke-linejoin="round"/></marker></defs>

<!-- Row 1: PDF Input -->
<rect x="248" y="20" width="184" height="50" rx="8" fill="#F1EFE8" stroke="#5F5E5A" stroke-width="0.5"/>
<text x="340" y="38" text-anchor="middle" dominant-baseline="central" font-size="14" font-weight="500" fill="#2C2C2A">PDF lab report</text>
<text x="340" y="56" text-anchor="middle" dominant-baseline="central" font-size="12" fill="#5F5E5A">Any Indian lab format</text>

<line x1="340" y1="70" x2="340" y2="100" stroke="#888780" stroke-width="1.5" marker-end="url(#arrow)"/>

<!-- Row 2: Dual Extraction -->
<rect x="100" y="100" width="210" height="50" rx="8" fill="#E1F5EE" stroke="#0F6E56" stroke-width="0.5"/>
<text x="205" y="118" text-anchor="middle" dominant-baseline="central" font-size="14" font-weight="500" fill="#04342C">Table extraction</text>
<text x="205" y="136" text-anchor="middle" dominant-baseline="central" font-size="12" fill="#0F6E56">pdfplumber (primary)</text>

<rect x="370" y="100" width="210" height="50" rx="8" fill="#E1F5EE" stroke="#0F6E56" stroke-width="0.5"/>
<text x="475" y="118" text-anchor="middle" dominant-baseline="central" font-size="14" font-weight="500" fill="#04342C">Regex fallback</text>
<text x="475" y="136" text-anchor="middle" dominant-baseline="central" font-size="12" fill="#0F6E56">Text-based extraction</text>

<line x1="205" y1="150" x2="205" y2="170" stroke="#888780" stroke-width="1"/>
<line x1="475" y1="150" x2="475" y2="170" stroke="#888780" stroke-width="1"/>
<line x1="205" y1="170" x2="475" y2="170" stroke="#888780" stroke-width="1"/>
<line x1="340" y1="170" x2="340" y2="190" stroke="#888780" stroke-width="1.5" marker-end="url(#arrow)"/>

<!-- Row 3: Patient Info + Biomarker Matching -->
<rect x="100" y="190" width="210" height="50" rx="8" fill="#EEEDFE" stroke="#534AB7" stroke-width="0.5"/>
<text x="205" y="208" text-anchor="middle" dominant-baseline="central" font-size="14" font-weight="500" fill="#26215C">Patient info parser</text>
<text x="205" y="226" text-anchor="middle" dominant-baseline="central" font-size="12" fill="#534AB7">Name, age, sex, lab, dates</text>

<rect x="370" y="190" width="210" height="50" rx="8" fill="#EEEDFE" stroke="#534AB7" stroke-width="0.5"/>
<text x="475" y="208" text-anchor="middle" dominant-baseline="central" font-size="14" font-weight="500" fill="#26215C">Biomarker matching</text>
<text x="475" y="226" text-anchor="middle" dominant-baseline="central" font-size="12" fill="#534AB7">56 names + 209 aliases</text>

<line x1="340" y1="240" x2="340" y2="280" stroke="#888780" stroke-width="1.5" marker-end="url(#arrow)"/>

<!-- Row 4: Clinical Validation -->
<rect x="130" y="280" width="420" height="65" rx="8" fill="#FAECE7" stroke="#993C1D" stroke-width="0.5"/>
<text x="340" y="300" text-anchor="middle" dominant-baseline="central" font-size="14" font-weight="500" fill="#4A1B0C">Clinical validation engine</text>
<text x="340" y="318" text-anchor="middle" dominant-baseline="central" font-size="12" fill="#993C1D">Gender-specific ranges | Flag: normal / high / low / critical</text>
<text x="340" y="334" text-anchor="middle" dominant-baseline="central" font-size="12" fill="#993C1D">Deviation % | Interpretation bands</text>

<line x1="340" y1="345" x2="340" y2="385" stroke="#888780" stroke-width="1.5" marker-end="url(#arrow)"/>

<!-- Row 5: RAG Pipeline -->
<rect x="130" y="385" width="420" height="65" rx="8" fill="#E6F1FB" stroke="#185FA5" stroke-width="0.5"/>
<text x="340" y="405" text-anchor="middle" dominant-baseline="central" font-size="14" font-weight="500" fill="#042C53">RAG retrieval pipeline</text>
<text x="340" y="423" text-anchor="middle" dominant-baseline="central" font-size="12" fill="#185FA5">ChromaDB + all-MiniLM-L6-v2 embeddings</text>
<text x="340" y="439" text-anchor="middle" dominant-baseline="central" font-size="12" fill="#185FA5">25 medical knowledge chunks | Cosine similarity</text>

<!-- Side: Medical KB -->
<rect x="40" y="393" width="72" height="50" rx="6" fill="#FAEEDA" stroke="#854F0B" stroke-width="0.5"/>
<text x="76" y="412" text-anchor="middle" dominant-baseline="central" font-size="11" fill="#412402">Medical</text>
<text x="76" y="428" text-anchor="middle" dominant-baseline="central" font-size="11" fill="#412402">KB</text>
<line x1="112" y1="418" x2="128" y2="418" stroke="#854F0B" stroke-width="1.5" marker-end="url(#arrow)"/>

<!-- Side: Sources -->
<rect x="568" y="393" width="72" height="50" rx="6" fill="#FAEEDA" stroke="#854F0B" stroke-width="0.5"/>
<text x="604" y="412" text-anchor="middle" dominant-baseline="central" font-size="11" fill="#412402">Harrison's</text>
<text x="604" y="428" text-anchor="middle" dominant-baseline="central" font-size="11" fill="#412402">WHO, ICMR</text>
<line x1="552" y1="418" x2="566" y2="418" stroke="#854F0B" stroke-width="1"/>

<line x1="340" y1="450" x2="340" y2="490" stroke="#888780" stroke-width="1.5" marker-end="url(#arrow)"/>

<!-- Row 6: Pattern Analysis -->
<rect x="160" y="490" width="360" height="50" rx="8" fill="#FBEAF0" stroke="#993556" stroke-width="0.5"/>
<text x="340" y="508" text-anchor="middle" dominant-baseline="central" font-size="14" font-weight="500" fill="#4B1528">Combined pattern analysis</text>
<text x="340" y="526" text-anchor="middle" dominant-baseline="central" font-size="12" fill="#993556">Cross-biomarker correlations</text>

<!-- Fan out -->
<line x1="340" y1="540" x2="340" y2="570" stroke="#888780" stroke-width="1"/>
<line x1="140" y1="570" x2="540" y2="570" stroke="#888780" stroke-width="1"/>
<line x1="140" y1="570" x2="140" y2="600" stroke="#888780" stroke-width="1.5" marker-end="url(#arrow)"/>
<line x1="340" y1="570" x2="340" y2="600" stroke="#888780" stroke-width="1.5" marker-end="url(#arrow)"/>
<line x1="540" y1="570" x2="540" y2="600" stroke="#888780" stroke-width="1.5" marker-end="url(#arrow)"/>

<!-- Row 7: Three outputs -->
<rect x="68" y="600" width="144" height="50" rx="8" fill="#EAF3DE" stroke="#3B6D11" stroke-width="0.5"/>
<text x="140" y="618" text-anchor="middle" dominant-baseline="central" font-size="14" font-weight="500" fill="#173404">JSON output</text>
<text x="140" y="636" text-anchor="middle" dominant-baseline="central" font-size="12" fill="#3B6D11">Structured data</text>

<rect x="268" y="600" width="144" height="50" rx="8" fill="#EAF3DE" stroke="#3B6D11" stroke-width="0.5"/>
<text x="340" y="618" text-anchor="middle" dominant-baseline="central" font-size="14" font-weight="500" fill="#173404">Clinical summary</text>
<text x="340" y="636" text-anchor="middle" dominant-baseline="central" font-size="12" fill="#3B6D11">Cited references</text>

<rect x="468" y="600" width="144" height="50" rx="8" fill="#EAF3DE" stroke="#3B6D11" stroke-width="0.5"/>
<text x="540" y="618" text-anchor="middle" dominant-baseline="central" font-size="14" font-weight="500" fill="#173404">LLM analysis</text>
<text x="540" y="636" text-anchor="middle" dominant-baseline="central" font-size="12" fill="#3B6D11">Day 3 (planned)</text>

<!-- Day labels -->
<text x="636" y="125" font-size="11" fill="#888780">Day 1</text>
<text x="636" y="215" font-size="11" fill="#888780">Day 1</text>
<text x="636" y="312" font-size="11" fill="#888780">Day 1</text>
<text x="636" y="418" font-size="11" fill="#888780">Day 2</text>
<text x="636" y="515" font-size="11" fill="#888780">Day 2</text>
</svg>
